<?xml version="1.0" encoding="UTF-8"?>
<svg id="Calque_2" data-name="Calque 2" xmlns="http://www.w3.org/2000/svg" xmlns:xlink="http://www.w3.org/1999/xlink" viewBox="0 0 945.64 159.79">
  <defs>
    <style>
      .cls-1 {
        fill: url(#Dégradé_sans_nom_27-6);
      }

      .cls-2 {
        fill: url(#Dégradé_sans_nom_27-7);
      }

      .cls-3 {
        fill: url(#Dégradé_sans_nom_27-3);
      }

      .cls-4 {
        fill: url(#Dégradé_sans_nom_27-4);
      }

      .cls-5 {
        fill: url(#Dégradé_sans_nom_27);
      }

      .cls-6 {
        fill: url(#Dégradé_sans_nom_27-2);
      }

      .cls-7 {
        fill: url(#Dégradé_sans_nom_27-5);
      }

      .cls-8 {
        fill: url(#Dégradé_sans_nom_27-8);
      }
    </style>
    <linearGradient id="Dégradé_sans_nom_27" data-name="Dégradé sans nom 27" x1="-84.95" y1="44.19" x2="779.71" y2="194.13" gradientUnits="userSpaceOnUse">
      <stop offset="0" stop-color="#9356dc"/>
      <stop offset=".51" stop-color="#ff79da"/>
      <stop offset="1" stop-color="#99e2d0"/>
    </linearGradient>
    <linearGradient id="Dégradé_sans_nom_27-2" data-name="Dégradé sans nom 27" x1="-81.42" y1="23.83" x2="783.24" y2="173.78" xlink:href="#Dégradé_sans_nom_27"/>
    <linearGradient id="Dégradé_sans_nom_27-3" data-name="Dégradé sans nom 27" x1="-79.47" y1="12.61" x2="785.19" y2="162.55" xlink:href="#Dégradé_sans_nom_27"/>
    <linearGradient id="Dégradé_sans_nom_27-4" data-name="Dégradé sans nom 27" x1="-77.74" y1="2.6" x2="786.92" y2="152.54" xlink:href="#Dégradé_sans_nom_27"/>
    <linearGradient id="Dégradé_sans_nom_27-5" data-name="Dégradé sans nom 27" x1="-69.24" y1="-46.4" x2="795.42" y2="103.54" xlink:href="#Dégradé_sans_nom_27"/>
    <linearGradient id="Dégradé_sans_nom_27-6" data-name="Dégradé sans nom 27" x1="-69.77" y1="-43.37" x2="794.89" y2="106.57" xlink:href="#Dégradé_sans_nom_27"/>
    <linearGradient id="Dégradé_sans_nom_27-7" data-name="Dégradé sans nom 27" x1="-66.47" y1="-62.37" x2="798.19" y2="87.58" xlink:href="#Dégradé_sans_nom_27"/>
    <linearGradient id="Dégradé_sans_nom_27-8" data-name="Dégradé sans nom 27" x1="-59.75" y1="-101.12" x2="804.91" y2="48.83" xlink:href="#Dégradé_sans_nom_27"/>
  </defs>
  <g id="Calque_1-2" data-name="Calque 1">
    <g>
      <path class="cls-5" d="m110.77,20.21c8.14,6.82,12.21,16.66,12.21,29.5,0,6.08-.92,12.62-2.75,19.61-3.44,12.84-8.77,23.74-16,32.68-7.22,8.94-15.82,15.71-25.8,20.3-9.98,4.59-20.81,6.88-32.51,6.88-14.34,0-25.57-3.41-33.71-10.23C4.07,112.12,0,102.28,0,89.44c0-5.85.97-12.56,2.92-20.12,3.32-12.73,8.57-23.53,15.74-32.42,7.17-8.88,15.71-15.59,25.63-20.12,9.92-4.53,20.78-6.79,32.59-6.79,14.45,0,25.74,3.41,33.88,10.23Zm-46.27,10.75c-2.75,2.75-5.48,7.25-8.17,13.5-2.7,6.25-5.59,14.94-8.69,26.06-4.59,16.05-6.88,27.12-6.88,33.2,0,3.55.63,6.13,1.89,7.74,1.26,1.61,3.27,2.41,6.02,2.41,3.44,0,6.54-1.4,9.29-4.21,2.75-2.81,5.44-7.31,8.08-13.5,2.64-6.19,5.56-14.73,8.77-25.63,4.47-15.82,6.71-26.94,6.71-33.37,0-3.67-.63-6.3-1.89-7.91-1.26-1.6-3.21-2.41-5.85-2.41-3.44,0-6.54,1.38-9.29,4.13Z"/>
      <path class="cls-6" d="m224.63,103.37c-.23.46-.34,1.15-.34,2.06,0,.8.2,1.43.6,1.89.4.46.95.69,1.63.69,1.38,0,2.55-.6,3.53-1.81.97-1.2,1.63-1.81,1.98-1.81.57,0,1.03.37,1.38,1.12.34.75.52,1.63.52,2.67.11,3.33-.98,6.57-3.27,9.72-2.3,3.16-5.65,5.74-10.06,7.74-4.42,2-9.72,3.01-15.91,3.01-7.57,0-13.59-1.75-18.06-5.25-4.47-3.5-6.77-8.17-6.88-14.02,0-4.24,1.03-9,3.1-14.28l9.46-24.77c.57-1.49.86-2.69.86-3.61,0-1.49-.49-2.67-1.46-3.53-.98-.86-2.15-1.29-3.53-1.29-2.18,0-4.39,1-6.62,3.01-2.24,2.01-4.04,5.25-5.42,9.72v-.34l-10.84,34.92c-.34,1.38-.52,2.58-.52,3.61,0,1.49.28,2.67.86,3.53.57.86,1.38,1.69,2.41,2.49.8.8,1.38,1.46,1.72,1.98.34.52.4,1.18.17,1.98-.58,1.49-1.72,2.58-3.44,3.27-1.72.69-4.36,1.03-7.91,1.03h-39.22c-2.98,0-5.16-.49-6.54-1.46-1.38-.97-1.83-2.26-1.38-3.87.46-1.38,1.66-2.58,3.61-3.61,1.72-.92,3.16-2,4.3-3.27,1.15-1.26,2.12-3.27,2.92-6.02l26.14-85.83c.34-1.03.52-1.89.52-2.58,0-1.26-.32-2.29-.95-3.1-.63-.8-1.46-1.6-2.49-2.41-1.15-.92-1.98-1.72-2.49-2.41-.52-.69-.6-1.6-.26-2.75.69-2.64,4.3-4.93,10.84-6.88,6.54-1.95,13.36-2.92,20.47-2.92,6.65,0,11.55,1.26,14.71,3.78,3.15,2.52,4.73,5.96,4.73,10.32,0,2.52-.4,4.99-1.2,7.4l-9.29,30.27c4.47-5.85,9.2-9.92,14.19-12.21,4.99-2.29,10.41-3.44,16.25-3.44,6.99,0,12.64,2.12,16.94,6.36,4.3,4.24,6.45,9.75,6.45,16.51,0,3.56-.58,7.05-1.72,10.49l-10.49,33.88Z"/>
      <path class="cls-3" d="m404.88,103.37c-.23.46-.34,1.15-.34,2.06,0,.8.2,1.43.6,1.89.4.46.95.69,1.63.69,1.38,0,2.55-.6,3.53-1.81.97-1.2,1.63-1.81,1.98-1.81.57,0,1.03.37,1.38,1.12.34.75.52,1.63.52,2.67.11,3.33-.98,6.57-3.27,9.72-2.29,3.16-5.65,5.74-10.06,7.74-4.42,2-9.72,3.01-15.91,3.01-7.57,0-13.59-1.75-18.06-5.25-4.47-3.5-6.77-8.17-6.88-14.02,0-4.24,1.03-9,3.1-14.28l9.46-24.77c.57-1.49.86-2.69.86-3.61,0-1.49-.49-2.67-1.46-3.53-.98-.86-2.15-1.29-3.53-1.29-1.95,0-3.96.86-6.02,2.58-2.06,1.72-3.9,4.42-5.5,8.08l-9.46,30.79c-.23.46-.34,1.15-.34,2.06,0,.8.2,1.43.6,1.89.4.46.95.69,1.63.69,1.38,0,2.55-.6,3.53-1.81.97-1.2,1.63-1.81,1.98-1.81.57,0,1.03.37,1.38,1.12.34.75.52,1.63.52,2.67.11,3.33-.98,6.57-3.27,9.72-2.29,3.16-5.65,5.74-10.06,7.74-4.42,2-9.72,3.01-15.91,3.01-7.57,0-13.59-1.75-18.06-5.25-4.47-3.5-6.77-8.17-6.88-14.02,0-4.24,1.03-9,3.1-14.28l9.46-24.77c.57-1.49.86-2.69.86-3.61,0-1.49-.49-2.67-1.46-3.53-.98-.86-2.15-1.29-3.53-1.29-1.95,0-3.96.83-6.02,2.49-2.06,1.66-3.78,4.33-5.16,8l-11.35,36.81c-.46,1.26-.69,2.47-.69,3.61,0,1.38.29,2.49.86,3.35.57.86,1.38,1.75,2.41,2.67.8.69,1.38,1.32,1.72,1.89.34.58.4,1.26.17,2.06-.46,1.49-1.55,2.58-3.27,3.27-1.72.69-4.42,1.03-8.08,1.03h-39.22c-2.98,0-5.13-.49-6.45-1.46-1.32-.97-1.81-2.26-1.46-3.87.46-1.38,1.66-2.58,3.61-3.61,1.72-.92,3.16-2,4.3-3.27,1.14-1.26,2.12-3.27,2.92-6.02l15.31-49.71c.23-.57.34-1.38.34-2.41,0-1.26-.26-2.24-.77-2.92s-1.35-1.55-2.49-2.58c-1.15-.92-1.95-1.72-2.41-2.41-.46-.69-.52-1.6-.17-2.75.69-2.64,4.3-4.96,10.84-6.97,6.54-2,13.36-3.01,20.47-3.01,5.62,0,10.06,1.55,13.33,4.64,3.27,3.1,4.84,7.34,4.73,12.73,4.7-6.54,9.66-11.06,14.88-13.59,5.22-2.52,10.86-3.78,16.94-3.78,6.65,0,12.07,1.92,16.25,5.76,4.18,3.84,6.51,8.86,6.97,15.05,4.93-7.8,10.2-13.21,15.82-16.25,5.62-3.04,11.75-4.56,18.4-4.56,6.99,0,12.64,2.12,16.94,6.36,4.3,4.24,6.45,9.75,6.45,16.51,0,3.56-.58,7.05-1.72,10.49l-10.49,33.88Z"/>
      <path class="cls-4" d="m523.13,42.23c3.04,4.07,4.56,9.6,4.56,16.6,0,6.08-1.09,12.62-3.27,19.61-4.24,14.1-11.04,27.41-20.38,39.9-9.35,12.5-20.07,22.53-32.16,30.1-12.1,7.57-24.17,11.35-36.21,11.35-5.96,0-11.09-1.03-15.39-3.1-4.3-2.06-7.57-4.82-9.8-8.26-2.24-3.44-3.35-7.11-3.35-11.01,0-1.72.29-3.61.86-5.68,1.03-3.21,2.75-5.68,5.16-7.4s5.28-2.58,8.6-2.58c5.27,0,9.6,1.81,12.99,5.42,3.38,3.61,5.53,8.57,6.45,14.88,7.34-.34,14.1-3.5,20.3-9.46-5.85-1.03-10.18-3.01-12.99-5.93-2.81-2.92-4.73-7.48-5.76-13.67l-6.88-42.14c-.34-2.18-.83-3.7-1.46-4.56-.63-.86-1.46-1.29-2.49-1.29-.8,0-1.75.4-2.84,1.2-1.09.8-1.87,1.2-2.32,1.2-.92,0-1.38-.97-1.38-2.92,0-1.6.29-3.32.86-5.16,2.06-6.54,5.9-12.07,11.52-16.6,5.62-4.53,12.15-6.79,19.61-6.79s12.75,2.18,16.25,6.54c3.5,4.36,5.76,11.07,6.79,20.12l5.16,37.84c.34,2.87,1.38,4.3,3.1,4.3,2.06,0,4.47-1.86,7.22-5.59,2.75-3.72,5.44-9.03,8.08-15.91-3.44-3.1-6.08-6.65-7.91-10.66-1.84-4.01-2.75-8.31-2.75-12.9,0-3.55.46-6.76,1.38-9.63,1.38-4.58,3.53-8.05,6.45-10.41,2.92-2.35,6.22-3.53,9.89-3.53,5.04,0,9.09,2.04,12.13,6.11Z"/>
      <path class="cls-7" d="m624.27,5.59c6.13,3.73,9.2,8.29,9.2,13.67,0,4.36-1.81,7.71-5.42,10.06-3.61,2.35-8.34,3.53-14.19,3.53-5.39,0-9.58-1.32-12.56-3.96-2.98-2.64-4.47-5.9-4.47-9.8,0-2.41.75-4.93,2.24-7.57-3.44,0-6.31.83-8.6,2.49-2.3,1.66-4.07,4.5-5.33,8.51-.69,2.52-1.03,4.88-1.03,7.05,0,2.75.49,4.9,1.46,6.45.97,1.55,2.38,2.32,4.21,2.32h10.15c5.96,0,8.94,1.84,8.94,5.5,0,.46-.12,1.15-.34,2.06-.69,2.52-2.09,4.42-4.21,5.68-2.12,1.26-5.31,1.89-9.55,1.89h-5.16l-17.03,55.73c-.34,1.38-.52,2.58-.52,3.61,0,1.49.29,2.67.86,3.53.57.86,1.38,1.69,2.41,2.49.8.8,1.38,1.46,1.72,1.98.34.52.4,1.18.17,1.98-.58,1.49-1.72,2.58-3.44,3.27-1.72.69-4.36,1.03-7.91,1.03h-39.22c-2.98,0-5.16-.49-6.54-1.46-1.38-.97-1.83-2.26-1.38-3.87.46-1.38,1.66-2.58,3.61-3.61,1.72-.92,3.16-2,4.3-3.27,1.14-1.26,2.12-3.27,2.92-6.02l13.42-44.03c.57-1.72.86-3.5.86-5.33,0-2.29-.49-4.1-1.46-5.42-.98-1.32-2.44-2.78-4.39-4.39-1.26-1.03-2.21-1.92-2.84-2.67-.63-.74-.95-1.63-.95-2.67-.12-2.18.66-3.73,2.32-4.64,1.66-.92,4.84-1.38,9.55-1.38h4.3c-.8-2.86-1.2-5.73-1.2-8.6s.52-5.85,1.55-8.94c2.18-5.85,6.85-10.78,14.02-14.79,7.17-4.01,17.8-6.02,31.91-6.02,12.27,0,21.47,1.87,27.61,5.59Z"/>
      <path class="cls-1" d="m699.09,45.58c7.4,6.31,11.09,14.56,11.09,24.77,0,3.44-.46,7.28-1.38,11.52-2.18,9.4-6.25,17.63-12.21,24.68-5.96,7.05-13.27,12.5-21.93,16.34-8.66,3.84-18.03,5.76-28.12,5.76-15.94,0-27.72-3.18-35.35-9.55-7.63-6.36-11.44-14.82-11.44-25.37,0-3.55.46-7.51,1.38-11.87,2.18-8.94,6.33-16.88,12.47-23.82,6.13-6.94,13.64-12.32,22.53-16.17,8.88-3.84,18.38-5.76,28.47-5.76,15.59,0,27.09,3.15,34.49,9.46Zm-42.66,12.3c-2.7,4.3-5.88,12.41-9.55,24.34-3.67,11.93-5.5,20.3-5.5,25.11,0,2.52.4,4.21,1.2,5.07.8.86,1.89,1.29,3.27,1.29,2.41.23,4.9-1.83,7.48-6.19,2.58-4.36,5.82-12.84,9.72-25.46,3.55-11.12,5.33-19.2,5.33-24.25,0-2.41-.37-4.07-1.12-4.99-.75-.92-1.81-1.38-3.18-1.38-2.41,0-4.96,2.15-7.65,6.45Z"/>
      <path class="cls-2" d="m811.92,45.58c7.4,6.31,11.09,14.56,11.09,24.77,0,3.44-.46,7.28-1.38,11.52-2.18,9.4-6.25,17.63-12.21,24.68-5.96,7.05-13.27,12.5-21.93,16.34-8.66,3.84-18.03,5.76-28.12,5.76-15.94,0-27.72-3.18-35.35-9.55-7.63-6.36-11.44-14.82-11.44-25.37,0-3.55.46-7.51,1.38-11.87,2.18-8.94,6.33-16.88,12.47-23.82,6.13-6.94,13.64-12.32,22.53-16.17,8.88-3.84,18.38-5.76,28.47-5.76,15.59,0,27.09,3.15,34.49,9.46Zm-42.66,12.3c-2.7,4.3-5.88,12.41-9.55,24.34-3.67,11.93-5.5,20.3-5.5,25.11,0,2.52.4,4.21,1.2,5.07.8.86,1.89,1.29,3.27,1.29,2.41.23,4.9-1.83,7.48-6.19,2.58-4.36,5.82-12.84,9.72-25.46,3.55-11.12,5.33-19.2,5.33-24.25,0-2.41-.37-4.07-1.12-4.99-.75-.92-1.81-1.38-3.18-1.38-2.41,0-4.96,2.15-7.65,6.45Z"/>
      <path class="cls-8" d="m919.5,104.23c0,.8.23,1.44.69,1.89.46.46,1.03.69,1.72.69,1.38,0,2.55-.6,3.53-1.81.97-1.2,1.63-1.81,1.98-1.81.57,0,1.03.4,1.38,1.2.34.8.52,1.72.52,2.75.11,3.1-1.06,6.25-3.53,9.46-2.47,3.21-5.76,5.85-9.89,7.91-4.13,2.06-8.6,3.1-13.42,3.1-5.74,0-10.72-1.09-14.96-3.27-4.24-2.18-7.17-5.04-8.77-8.6-3.1,4.01-6.65,7-10.66,8.94-4.01,1.95-8.26,2.92-12.73,2.92-5.28,0-10.18-1.32-14.71-3.96-4.53-2.64-8.14-6.39-10.84-11.27-2.7-4.87-4.04-10.41-4.04-16.6,0-10.43,1.98-20.27,5.93-29.5,3.96-9.23,9.49-16.68,16.6-22.36,7.11-5.68,15.19-8.51,24.25-8.51,4.93,0,9.14.57,12.64,1.72,3.5,1.15,6.68,2.87,9.55,5.16l5.85-19.26c.34-1.03.52-1.89.52-2.58,0-1.26-.32-2.29-.95-3.1-.63-.8-1.46-1.6-2.49-2.41-1.15-.92-1.98-1.72-2.49-2.41-.52-.69-.6-1.6-.26-2.75.69-2.64,4.3-4.93,10.84-6.88,6.54-1.95,13.36-2.92,20.47-2.92,6.65,0,11.55,1.26,14.71,3.78,3.15,2.52,4.73,5.96,4.73,10.32,0,2.52-.4,4.99-1.2,7.4l-24.6,80.84c-.23.92-.34,1.55-.34,1.89Zm-34.4-52.63c-3.33,0-6.6,2.47-9.8,7.4-3.21,4.93-5.79,10.9-7.74,17.89-1.95,7-2.87,13.3-2.75,18.92,0,6.31,2.06,9.46,6.19,9.46,1.49,0,2.75-.6,3.78-1.81,1.03-1.2,2-3.18,2.92-5.93l13.42-43.52c-1.83-1.6-3.84-2.41-6.02-2.41Z"/>
    </g>
  </g>
</svg>