<?xml version="1.0" encoding="UTF-8"?>
<svg id="Calque_2" data-name="Calque 2" xmlns="http://www.w3.org/2000/svg" xmlns:xlink="http://www.w3.org/1999/xlink" viewBox="0 0 290.68 129.07">
  <defs>
    <style>
      .cls-1 {
        fill: url(#Dégradé_sans_nom_27-3);
      }

      .cls-2 {
        fill: url(#Dégradé_sans_nom_27);
      }

      .cls-3 {
        fill: url(#Dégradé_sans_nom_27-2);
      }
    </style>
    <linearGradient id="Dégradé_sans_nom_27" data-name="Dégradé sans nom 27" x1="-181.24" y1="-42.81" x2="203.86" y2="134.88" gradientUnits="userSpaceOnUse">
      <stop offset="0" stop-color="#9356dc"/>
      <stop offset=".51" stop-color="#ff79da"/>
      <stop offset="1" stop-color="#99e2d0"/>
    </linearGradient>
    <linearGradient id="Dégradé_sans_nom_27-2" data-name="Dégradé sans nom 27" x1="-178.42" y1="-81.92" x2="206.68" y2="95.76" xlink:href="#Dégradé_sans_nom_27"/>
    <linearGradient id="Dégradé_sans_nom_27-3" data-name="Dégradé sans nom 27" x1="-169.11" y1="-131.95" x2="215.99" y2="45.73" xlink:href="#Dégradé_sans_nom_27"/>
  </defs>
  <g id="Calque_1-2" data-name="Calque 1">
    <path class="cls-2" d="m110.77,19.82c8.14,6.82,12.21,16.66,12.21,29.5,0,6.08-.92,12.62-2.75,19.61-3.44,12.84-8.77,23.74-16,32.68-7.22,8.94-15.82,15.71-25.8,20.3-9.98,4.59-20.81,6.88-32.51,6.88-14.34,0-25.57-3.41-33.71-10.23C4.07,111.73,0,101.9,0,89.05c0-5.85.97-12.56,2.92-20.12,3.32-12.73,8.57-23.53,15.74-32.42,7.17-8.88,15.71-15.59,25.63-20.12,9.92-4.53,20.78-6.79,32.59-6.79,14.45,0,25.74,3.41,33.88,10.23Zm-46.27,10.75c-2.75,2.75-5.48,7.25-8.17,13.5-2.7,6.25-5.59,14.94-8.69,26.06-4.59,16.05-6.88,27.12-6.88,33.2,0,3.55.63,6.13,1.89,7.74,1.26,1.61,3.27,2.41,6.02,2.41,3.44,0,6.54-1.4,9.29-4.21,2.75-2.81,5.44-7.31,8.08-13.5,2.64-6.19,5.56-14.73,8.77-25.63,4.47-15.82,6.71-26.94,6.71-33.37,0-3.67-.63-6.3-1.89-7.91-1.26-1.6-3.21-2.41-5.85-2.41-3.44,0-6.54,1.38-9.29,4.13Z"/>
    <path class="cls-3" d="m212.88,103.37c-.23.46-.34,1.15-.34,2.06,0,.8.2,1.43.6,1.89.4.46.95.69,1.63.69,1.38,0,2.55-.6,3.53-1.81.97-1.2,1.63-1.81,1.98-1.81.57,0,1.03.37,1.38,1.12.34.75.52,1.63.52,2.67.11,3.33-.98,6.57-3.27,9.72-2.3,3.16-5.65,5.74-10.06,7.74-4.42,2-9.72,3.01-15.91,3.01-7.57,0-13.59-1.75-18.06-5.25-4.47-3.5-6.77-8.17-6.88-14.02,0-4.24,1.03-9,3.1-14.28l9.46-24.77c.57-1.49.86-2.69.86-3.61,0-1.49-.49-2.67-1.46-3.53-.98-.86-2.15-1.29-3.53-1.29-2.18,0-4.39,1-6.62,3.01-2.24,2.01-4.04,5.25-5.42,9.72v-.34l-10.84,34.92c-.34,1.38-.52,2.58-.52,3.61,0,1.49.28,2.67.86,3.53.57.86,1.38,1.69,2.41,2.49.8.8,1.38,1.46,1.72,1.98.34.52.4,1.18.17,1.98-.58,1.49-1.72,2.58-3.44,3.27-1.72.69-4.36,1.03-7.91,1.03h-39.22c-2.98,0-5.16-.49-6.54-1.46-1.38-.97-1.83-2.26-1.38-3.87.46-1.38,1.66-2.58,3.61-3.61,1.72-.92,3.16-2,4.3-3.27,1.15-1.26,2.12-3.27,2.92-6.02l26.14-85.83c.34-1.03.52-1.89.52-2.58,0-1.26-.32-2.29-.95-3.1-.63-.8-1.46-1.6-2.49-2.41-1.15-.92-1.98-1.72-2.49-2.41-.52-.69-.6-1.6-.26-2.75.69-2.64,4.3-4.93,10.84-6.88,6.54-1.95,13.36-2.92,20.47-2.92,6.65,0,11.55,1.26,14.71,3.78,3.15,2.52,4.73,5.96,4.73,10.32,0,2.52-.4,4.99-1.2,7.4l-9.29,30.27c4.47-5.85,9.2-9.92,14.19-12.21,4.99-2.29,10.41-3.44,16.25-3.44,6.99,0,12.64,2.12,16.94,6.36,4.3,4.24,6.45,9.75,6.45,16.51,0,3.56-.58,7.05-1.72,10.49l-10.49,33.88Z"/>
    <path class="cls-1" d="m255.85,98.46c3.15,3.1,4.73,6.88,4.73,11.35,0,3.1-.83,6.14-2.49,9.12-1.66,2.98-3.96,5.42-6.88,7.31-2.92,1.89-6.22,2.84-9.89,2.84-4.47,0-8.26-1.55-11.35-4.64s-4.7-6.88-4.82-11.35c0-3.1.8-6.13,2.41-9.12,1.6-2.98,3.87-5.42,6.79-7.31,2.92-1.89,6.22-2.84,9.89-2.84,4.58,0,8.45,1.55,11.61,4.64ZM270.73.76c6.31,0,11.21,1.38,14.71,4.13,3.5,2.75,5.25,6.6,5.25,11.52s-1.78,10.78-5.33,17.2l-27,48.16c-1.38,2.64-2.78,4.5-4.21,5.59-1.44,1.09-3.18,1.63-5.25,1.63-4.47,0-6.59-2.69-6.36-8.08l2.24-54.52c.8-17.08,9.46-25.63,25.97-25.63Z"/>
  </g>
</svg>